<svg width="540" height="106" viewBox="0 0 540 106" fill="none" xmlns="http://www.w3.org/2000/svg">
<path d="M23.534 83.984C19.2153 83.984 15.58 83.3553 12.628 82.098C9.73067 80.8407 7.48933 79.0913 5.904 76.85C4.31867 74.6087 3.41667 72.0667 3.198 69.224L13.94 68.732C14.3227 71.028 15.2793 72.8047 16.81 74.062C18.3407 75.3193 20.6093 75.948 23.616 75.948C26.076 75.948 27.9893 75.5653 29.356 74.8C30.7773 73.98 31.488 72.7227 31.488 71.028C31.488 70.044 31.242 69.224 30.75 68.568C30.258 67.912 29.3287 67.338 27.962 66.846C26.5953 66.354 24.5727 65.862 21.894 65.37C17.4113 64.6047 13.8853 63.6753 11.316 62.582C8.74667 61.434 6.91533 60.0127 5.822 58.318C4.78333 56.6233 4.264 54.5187 4.264 52.004C4.264 47.904 5.822 44.5967 8.938 42.082C12.1087 39.5127 16.728 38.228 22.796 38.228C26.732 38.228 30.0393 38.884 32.718 40.196C35.3967 41.4533 37.474 43.2027 38.95 45.444C40.4807 47.6307 41.4373 50.1453 41.82 52.988L31.242 53.48C30.9687 52.004 30.4767 50.7193 29.766 49.626C29.0553 48.5327 28.0987 47.7127 26.896 47.166C25.6933 46.5647 24.272 46.264 22.632 46.264C20.172 46.264 18.3133 46.756 17.056 47.74C15.7987 48.724 15.17 50.036 15.17 51.676C15.17 52.824 15.4433 53.7807 15.99 54.546C16.5913 55.3113 17.548 55.94 18.86 56.432C20.172 56.8693 21.9213 57.2793 24.108 57.662C28.7 58.3727 32.308 59.302 34.932 60.45C37.6107 61.5433 39.4967 62.9647 40.59 64.714C41.738 66.4087 42.312 68.4587 42.312 70.864C42.312 73.652 41.5193 76.03 39.934 77.998C38.4033 79.966 36.2167 81.4693 33.374 82.508C30.586 83.492 27.306 83.984 23.534 83.984ZM58.9343 83.984C54.3423 83.984 50.6523 82.9453 47.8643 80.868C45.0763 78.736 43.6823 75.784 43.6823 72.012C43.6823 68.24 44.8576 65.288 47.2083 63.156C49.559 61.024 53.1396 59.4933 57.9503 58.564L72.4643 55.694C72.4643 52.578 71.7536 50.2547 70.3323 48.724C68.911 47.1387 66.8063 46.346 64.0183 46.346C61.5036 46.346 59.5083 46.9473 58.0323 48.15C56.611 49.298 55.627 50.9653 55.0803 53.152L44.4203 52.66C45.295 48.0133 47.427 44.46 50.8163 42C54.2056 39.4853 58.6063 38.228 64.0183 38.228C70.2503 38.228 74.9516 39.8133 78.1223 42.984C81.3476 46.1 82.9603 50.5827 82.9603 56.432V72.34C82.9603 73.488 83.1516 74.2807 83.5343 74.718C83.9716 75.1553 84.6003 75.374 85.4203 75.374H86.8143V83C86.4863 83.1093 85.9396 83.1913 85.1743 83.246C84.4636 83.3007 83.7256 83.328 82.9603 83.328C81.1563 83.328 79.5436 83.0547 78.1223 82.508C76.701 81.9067 75.6076 80.8953 74.8423 79.474C74.077 77.998 73.6943 76.0027 73.6943 73.488L74.5963 74.144C74.159 76.0573 73.2023 77.7793 71.7263 79.31C70.305 80.786 68.501 81.934 66.3143 82.754C64.1276 83.574 61.6676 83.984 58.9343 83.984ZM61.0663 76.358C63.417 76.358 65.4396 75.8933 67.1343 74.964C68.829 74.0347 70.141 72.75 71.0703 71.11C71.9996 69.47 72.4643 67.5293 72.4643 65.288V62.828L61.1483 65.124C58.7976 65.616 57.103 66.354 56.0643 67.338C55.0803 68.2673 54.5883 69.4973 54.5883 71.028C54.5883 72.7227 55.135 74.0347 56.2283 74.964C57.3763 75.8933 58.989 76.358 61.0663 76.358ZM101.69 83V39.212H111.202L111.612 51.512L110.382 51.02C110.819 47.9587 111.721 45.4987 113.088 43.64C114.454 41.7813 116.122 40.4147 118.09 39.54C120.058 38.6653 122.217 38.228 124.568 38.228C127.793 38.228 130.499 38.9387 132.686 40.36C134.927 41.7813 136.622 43.7493 137.77 46.264C138.918 48.724 139.492 51.594 139.492 54.874V83H128.996V58.236C128.996 55.776 128.75 53.6987 128.258 52.004C127.766 50.3093 126.946 49.0247 125.798 48.15C124.704 47.2207 123.228 46.756 121.37 46.756C118.582 46.756 116.34 47.74 114.646 49.708C113.006 51.676 112.186 54.5187 112.186 58.236V83H101.69ZM162.771 83.984C158.452 83.984 154.817 83.3553 151.865 82.098C148.967 80.8407 146.726 79.0913 145.141 76.85C143.555 74.6087 142.653 72.0667 142.435 69.224L153.177 68.732C153.559 71.028 154.516 72.8047 156.047 74.062C157.577 75.3193 159.846 75.948 162.853 75.948C165.313 75.948 167.226 75.5653 168.593 74.8C170.014 73.98 170.725 72.7227 170.725 71.028C170.725 70.044 170.479 69.224 169.987 68.568C169.495 67.912 168.565 67.338 167.199 66.846C165.832 66.354 163.809 65.862 161.131 65.37C156.648 64.6047 153.122 63.6753 150.553 62.582C147.983 61.434 146.152 60.0127 145.059 58.318C144.02 56.6233 143.501 54.5187 143.501 52.004C143.501 47.904 145.059 44.5967 148.175 42.082C151.345 39.5127 155.965 38.228 162.033 38.228C165.969 38.228 169.276 38.884 171.955 40.196C174.633 41.4533 176.711 43.2027 178.187 45.444C179.717 47.6307 180.674 50.1453 181.057 52.988L170.479 53.48C170.205 52.004 169.713 50.7193 169.003 49.626C168.292 48.5327 167.335 47.7127 166.133 47.166C164.93 46.5647 163.509 46.264 161.869 46.264C159.409 46.264 157.55 46.756 156.293 47.74C155.035 48.724 154.407 50.036 154.407 51.676C154.407 52.824 154.68 53.7807 155.227 54.546C155.828 55.3113 156.785 55.94 158.097 56.432C159.409 56.8693 161.158 57.2793 163.345 57.662C167.937 58.3727 171.545 59.302 174.169 60.45C176.847 61.5433 178.733 62.9647 179.827 64.714C180.975 66.4087 181.549 68.4587 181.549 70.864C181.549 73.652 180.756 76.03 179.171 77.998C177.64 79.966 175.453 81.4693 172.611 82.508C169.823 83.492 166.543 83.984 162.771 83.984ZM198.171 83.984C193.579 83.984 189.889 82.9453 187.101 80.868C184.313 78.736 182.919 75.784 182.919 72.012C182.919 68.24 184.094 65.288 186.445 63.156C188.796 61.024 192.376 59.4933 197.187 58.564L211.701 55.694C211.701 52.578 210.99 50.2547 209.569 48.724C208.148 47.1387 206.043 46.346 203.255 46.346C200.74 46.346 198.745 46.9473 197.269 48.15C195.848 49.298 194.864 50.9653 194.317 53.152L183.657 52.66C184.532 48.0133 186.664 44.46 190.053 42C193.442 39.4853 197.843 38.228 203.255 38.228C209.487 38.228 214.188 39.8133 217.359 42.984C220.584 46.1 222.197 50.5827 222.197 56.432V72.34C222.197 73.488 222.388 74.2807 222.771 74.718C223.208 75.1553 223.837 75.374 224.657 75.374H226.051V83C225.723 83.1093 225.176 83.1913 224.411 83.246C223.7 83.3007 222.962 83.328 222.197 83.328C220.393 83.328 218.78 83.0547 217.359 82.508C215.938 81.9067 214.844 80.8953 214.079 79.474C213.314 77.998 212.931 76.0027 212.931 73.488L213.833 74.144C213.396 76.0573 212.439 77.7793 210.963 79.31C209.542 80.786 207.738 81.934 205.551 82.754C203.364 83.574 200.904 83.984 198.171 83.984ZM200.303 76.358C202.654 76.358 204.676 75.8933 206.371 74.964C208.066 74.0347 209.378 72.75 210.307 71.11C211.236 69.47 211.701 67.5293 211.701 65.288V62.828L200.385 65.124C198.034 65.616 196.34 66.354 195.301 67.338C194.317 68.2673 193.825 69.4973 193.825 71.028C193.825 72.7227 194.372 74.0347 195.465 74.964C196.613 75.8933 198.226 76.358 200.303 76.358ZM228.661 95.3V87.182H234.237C235.658 87.182 236.697 86.9633 237.353 86.526C238.064 86.0887 238.61 85.3507 238.993 84.312L240.223 81.278H237.189L221.527 39.212H232.433L243.421 71.438L253.917 39.212H264.823L247.685 87.592C246.701 90.3253 245.307 92.2933 243.503 93.496C241.754 94.6987 239.294 95.3 236.123 95.3H228.661ZM277.858 83.984C273.266 83.984 269.576 82.9453 266.788 80.868C264 78.736 262.606 75.784 262.606 72.012C262.606 68.24 263.782 65.288 266.132 63.156C268.483 61.024 272.064 59.4933 276.874 58.564L291.388 55.694C291.388 52.578 290.678 50.2547 289.256 48.724C287.835 47.1387 285.73 46.346 282.942 46.346C280.428 46.346 278.432 46.9473 276.956 48.15C275.535 49.298 274.551 50.9653 274.004 53.152L263.344 52.66C264.219 48.0133 266.351 44.46 269.74 42C273.13 39.4853 277.53 38.228 282.942 38.228C289.174 38.228 293.876 39.8133 297.046 42.984C300.272 46.1 301.884 50.5827 301.884 56.432V72.34C301.884 73.488 302.076 74.2807 302.458 74.718C302.896 75.1553 303.524 75.374 304.344 75.374H305.738V83C305.41 83.1093 304.864 83.1913 304.098 83.246C303.388 83.3007 302.65 83.328 301.884 83.328C300.08 83.328 298.468 83.0547 297.046 82.508C295.625 81.9067 294.532 80.8953 293.766 79.474C293.001 77.998 292.618 76.0027 292.618 73.488L293.52 74.144C293.083 76.0573 292.126 77.7793 290.65 79.31C289.229 80.786 287.425 81.934 285.238 82.754C283.052 83.574 280.592 83.984 277.858 83.984ZM279.99 76.358C282.341 76.358 284.364 75.8933 286.058 74.964C287.753 74.0347 289.065 72.75 289.994 71.11C290.924 69.47 291.388 67.5293 291.388 65.288V62.828L280.072 65.124C277.722 65.616 276.027 66.354 274.988 67.338C274.004 68.2673 273.512 69.4973 273.512 71.028C273.512 72.7227 274.059 74.0347 275.152 74.964C276.3 75.8933 277.913 76.358 279.99 76.358ZM314.416 83L301.214 39.212H311.956L320.484 71.11L329.258 39.212H338.442L347.298 71.11L355.826 39.212H366.568L353.366 83H342.542L333.85 53.644L325.24 83H314.416ZM391.922 83.984C387.604 83.984 383.804 83.0547 380.524 81.196C377.299 79.2827 374.784 76.604 372.98 73.16C371.231 69.716 370.356 65.698 370.356 61.106C370.356 56.4593 371.231 52.4413 372.98 49.052C374.784 45.608 377.299 42.9567 380.524 41.098C383.804 39.1847 387.604 38.228 391.922 38.228C396.241 38.228 400.013 39.1847 403.238 41.098C406.464 42.9567 408.951 45.608 410.7 49.052C412.504 52.4413 413.406 56.4593 413.406 61.106C413.406 65.698 412.504 69.716 410.7 73.16C408.951 76.604 406.464 79.2827 403.238 81.196C400.013 83.0547 396.241 83.984 391.922 83.984ZM391.922 75.456C395.312 75.456 397.908 74.1987 399.712 71.684C401.571 69.1693 402.5 65.6433 402.5 61.106C402.5 56.6233 401.571 53.1247 399.712 50.61C397.908 48.0407 395.312 46.756 391.922 46.756C388.533 46.756 385.909 48.0407 384.05 50.61C382.192 53.1247 381.262 56.6233 381.262 61.106C381.262 65.6433 382.192 69.1693 384.05 71.684C385.909 74.1987 388.533 75.456 391.922 75.456ZM416.586 83V39.212H426.426L426.836 51.348L425.934 51.184C426.59 46.9747 427.82 43.9407 429.624 42.082C431.482 40.1687 433.997 39.212 437.168 39.212H441.186V48.232H437.086C434.844 48.232 432.986 48.56 431.51 49.216C430.034 49.872 428.913 50.9107 428.148 52.332C427.437 53.6987 427.082 55.5027 427.082 57.744V83H416.586ZM460.631 96.284C456.804 96.284 453.524 95.7647 450.791 94.726C448.058 93.6873 445.844 92.2113 444.149 90.298C442.509 88.4393 441.361 86.28 440.705 83.82L451.529 83.082C452.076 84.722 453.005 86.0067 454.317 86.936C455.684 87.8653 457.788 88.33 460.631 88.33C463.856 88.33 466.344 87.592 468.093 86.116C469.842 84.6947 470.717 82.4533 470.717 79.392V73.816C469.678 75.948 468.011 77.67 465.715 78.982C463.419 80.2393 460.85 80.868 458.007 80.868C454.399 80.868 451.174 79.9933 448.331 78.244C445.543 76.44 443.356 73.9527 441.771 70.782C440.186 67.5567 439.393 63.8393 439.393 59.63C439.393 55.4207 440.158 51.7307 441.689 48.56C443.274 45.3347 445.461 42.82 448.249 41.016C451.037 39.1573 454.235 38.228 457.843 38.228C461.014 38.228 463.747 38.9387 466.043 40.36C468.339 41.7813 470.006 43.6673 471.045 46.018V39.212H481.295V79.146C481.295 82.8633 480.42 86.0067 478.671 88.576C476.976 91.1453 474.571 93.0587 471.455 94.316C468.394 95.628 464.786 96.284 460.631 96.284ZM460.467 72.668C463.583 72.668 466.07 71.52 467.929 69.224C469.788 66.8733 470.744 63.648 470.799 59.548C470.854 56.8147 470.444 54.4913 469.569 52.578C468.749 50.61 467.546 49.1067 465.961 48.068C464.43 46.9747 462.599 46.428 460.467 46.428C457.242 46.428 454.727 47.6307 452.923 50.036C451.174 52.3867 450.299 55.5573 450.299 59.548C450.299 63.5387 451.201 66.7367 453.005 69.142C454.864 71.4927 457.351 72.668 460.467 72.668Z" fill="white"/>
<path fill-rule="evenodd" clip-rule="evenodd" d="M87.0015 48.8124C87.0015 39.3074 76.093 36.3227 75.146 31.2876C74.1163 25.8124 78.6461 21.3123 85.1461 19.3124C90.6461 17.6202 99.146 22.9708 99.146 31.2876C99.146 39.6045 89.5056 44.3569 87.0015 48.8124ZM87.3621 31.9102C91.0929 29.646 92.8947 25.7963 91.3868 23.3115C89.8788 20.8268 85.6319 20.6481 81.9012 22.9123C78.1705 25.1765 76.3686 29.0262 77.8766 31.5109C79.3846 33.9957 83.6314 34.1744 87.3621 31.9102Z" fill="url(#paint0_linear_116_44)"/>
<ellipse cx="365.486" cy="83.5987" rx="7.90182" ry="5.26273" transform="rotate(-31.2538 365.486 83.5987)" fill="#01D3CA"/>
<defs>
<linearGradient id="paint0_linear_116_44" x1="87.073" y1="19" x2="87.073" y2="48.8124" gradientUnits="userSpaceOnUse">
<stop offset="0.5" stop-color="#01D3CA"/>
</linearGradient>
</defs>
</svg>
